<?xml version="1.0" standalone="no"?>
<!DOCTYPE svg PUBLIC "-//W3C//DTD SVG 20010904//EN"
 "http://www.w3.org/TR/2001/REC-SVG-20010904/DTD/svg10.dtd">
<svg version="1.0" xmlns="http://www.w3.org/2000/svg"
 width="90.000000pt" height="150.000000pt" viewBox="0 0 90.000000 150.000000"
 preserveAspectRatio="xMidYMid meet">
<g transform="translate(0.000000,150.000000) scale(0.100000,-0.100000)"
fill="#000000" stroke="none">
<path d="M323 1414 c-66 -39 -90 -139 -45 -187 l21 -23 -47 -16 c-79 -29 -116
-68 -171 -181 -27 -56 -52 -119 -56 -140 -4 -20 -10 -37 -14 -37 -3 0 -6 -27
-6 -59 0 -33 3 -57 7 -55 3 2 14 -21 23 -51 9 -34 24 -60 38 -69 33 -22 127
-30 190 -16 65 13 95 42 132 127 20 44 28 53 50 53 22 0 30 -9 50 -53 37 -85
67 -114 131 -127 67 -14 167 -5 193 18 19 17 51 97 51 128 0 8 5 12 10 9 12
-8 14 87 1 100 -4 6 -15 31 -24 57 -18 56 -87 176 -127 222 -31 35 -126 86
-160 86 -17 0 -20 4 -15 18 4 9 13 34 19 55 15 54 -13 103 -77 138 -63 34
-121 35 -174 3z m158 -36 c47 -26 63 -63 54 -118 -6 -35 -10 -41 -26 -37 -10
3 -19 1 -19 -4 0 -5 6 -9 14 -9 7 0 19 -7 26 -15 7 -9 46 -31 86 -49 77 -36
111 -72 170 -180 l27 -50 -34 24 c-18 14 -40 25 -47 27 -14 1 -59 38 -74 58
-12 17 -82 9 -138 -17 -79 -36 -106 -41 -124 -23 -8 9 -19 16 -23 16 -4 0 -37
9 -72 19 l-64 20 -46 -27 c-25 -15 -50 -26 -54 -25 -5 1 -6 -1 -3 -6 7 -11
-11 -37 -25 -37 -7 0 -14 -6 -17 -14 -3 -9 0 -11 9 -6 8 5 10 4 6 0 -4 -5 -14
-10 -22 -11 -17 -3 -13 10 40 105 32 58 53 83 91 108 27 18 65 45 84 60 35 27
35 28 17 46 -14 14 -18 27 -13 51 4 22 3 27 -4 16 -8 -12 -10 -11 -10 8 0 79
105 118 191 70z m-129 -419 c31 -16 64 -29 73 -29 9 0 41 13 73 29 31 15 69
31 85 35 29 7 74 -11 97 -39 8 -9 32 -26 54 -37 44 -22 86 -56 86 -70 0 -4
-42 -8 -93 -8 -51 0 -118 -4 -148 -9 -110 -20 -146 -21 -234 -6 -49 8 -125 15
-167 15 -43 0 -78 2 -78 5 0 14 93 131 113 141 29 16 69 8 139 -27z m-10 -166
c42 -24 46 -54 16 -112 -31 -61 -63 -82 -134 -88 -78 -7 -137 9 -152 42 -18
40 -26 129 -13 153 14 26 42 31 158 28 69 -2 99 -8 125 -23z m486 1 c16 -22
11 -114 -9 -158 -16 -34 -74 -50 -153 -43 -71 6 -103 27 -133 87 -30 58 -29
86 2 106 41 26 83 33 184 30 78 -3 97 -7 109 -22z"/>
<path d="M702 533 c-5 -10 -22 -57 -37 -105 l-27 -87 -56 40 c-59 40 -88 47
-124 28 -14 -8 -23 -8 -31 0 -21 21 -64 11 -119 -28 l-56 -39 -15 41 c-9 23
-22 64 -29 91 -7 27 -18 51 -23 53 -17 5 -115 -92 -115 -114 0 -26 129 -187
182 -228 22 -16 47 -38 56 -47 9 -10 23 -18 32 -18 8 0 24 -7 34 -15 11 -9 41
-15 69 -15 94 0 239 112 333 257 71 109 69 141 -8 178 -62 30 -55 29 -66 8z
m82 -62 c10 -15 -51 -124 -107 -191 -71 -86 -173 -150 -239 -150 -60 0 -144
55 -225 148 -94 106 -104 124 -90 153 7 13 22 25 33 27 18 3 23 -5 32 -41 16
-60 46 -97 81 -97 23 0 30 -5 34 -28 7 -36 44 -82 66 -82 9 0 26 7 37 15 24
18 54 18 78 0 11 -8 26 -15 33 -15 21 0 61 48 68 81 5 24 12 29 36 29 35 0 60
36 84 117 8 28 21 53 28 56 13 5 43 -8 51 -22z m-314 -116 c7 -9 29 -15 51
-15 46 0 49 -11 18 -72 l-22 -42 -21 27 c-30 38 -88 38 -105 1 -17 -39 -41
-14 -63 70 -2 5 13 11 32 14 19 2 44 10 55 17 26 18 40 18 55 0z"/>
</g>
</svg>
